<?xml version="1.0" standalone="no"?>
<!DOCTYPE svg PUBLIC "-//W3C//DTD SVG 20010904//EN"
 "http://www.w3.org/TR/2001/REC-SVG-20010904/DTD/svg10.dtd">
<svg version="1.0" xmlns="http://www.w3.org/2000/svg"
 width="260.000000pt" height="260.000000pt" viewBox="0 0 260.000000 260.000000"
 preserveAspectRatio="xMidYMid meet">
<metadata>
Created by potrace 1.14, written by Peter Selinger 2001-2017
</metadata>
<g transform="translate(0.000000,260.000000) scale(0.100000,-0.100000)"
fill="#000000" stroke="none">
<path d="M2 1518 c3 -956 5 -1083 18 -1080 12 2 12 0 -2 -11 -14 -11 -16 -40
-16 -220 -1 -226 -3 -216 56 -201 19 5 20 9 10 22 -11 13 -10 14 9 3 13 -6 23
-16 23 -20 0 -5 243 -10 540 -10 358 -1 540 2 540 9 0 5 5 10 11 10 5 0 8 -4
4 -10 -3 -6 54 -9 154 -7 100 1 159 5 158 11 -2 12 63 8 79 -5 17 -14 824 -10
824 4 0 9 2 9 8 0 5 -8 36 -12 94 -11 l87 1 1 1299 0 1298 -1300 0 -1300 0 2
-1082z m259 1005 c13 -16 12 -17 -3 -4 -10 7 -18 15 -18 17 0 8 8 3 21 -13z
m1357 -322 c23 -4 46 -11 49 -14 6 -7 -5 -70 -44 -236 -13 -57 -22 -105 -21
-107 2 -2 39 -10 83 -19 138 -29 201 -60 281 -139 93 -93 118 -152 118 -281
-1 -338 -271 -594 -626 -595 l-76 0 -16 -67 c-8 -38 -18 -85 -21 -105 l-7 -38
-144 0 c-86 0 -144 4 -144 10 0 5 9 48 20 95 11 47 20 90 20 95 0 6 -21 10
-47 10 -67 0 -168 26 -225 57 -228 124 -277 465 -102 704 86 118 319 232 517
255 32 4 64 12 71 19 14 14 71 274 62 283 -11 10 -184 -18 -241 -39 -95 -35
-141 -116 -116 -204 l10 -38 -60 6 c-68 6 -101 24 -129 70 -27 44 -25 85 8
138 44 68 136 110 316 145 77 15 385 12 464 -5z m570 -1639 c2 -8 -2 -10 -14
-5 -12 4 -15 3 -10 -5 4 -7 3 -12 -2 -12 -14 0 -33 26 -25 34 11 11 46 3 51
-12z m-2088 -148 c0 -2 -7 -4 -15 -4 -8 0 -15 4 -15 10 0 5 7 7 15 4 8 -4 15
-8 15 -10z m70 6 c12 -8 11 -10 -7 -10 -13 0 -23 -4 -23 -10 0 -5 -7 -6 -17
-3 -12 5 -14 3 -8 -7 6 -9 4 -11 -5 -5 -10 6 -8 12 9 27 26 21 30 21 51 8z
m119 -24 c1 15 46 23 63 12 10 -8 9 -9 -3 -5 -19 6 -44 -37 -33 -55 4 -7 2 -8
-5 -4 -6 4 -9 16 -6 26 4 14 0 18 -17 18 -58 1 -78 5 -89 18 -9 11 -4 13 25
12 20 -1 39 2 43 6 5 4 11 -3 14 -16 4 -13 7 -18 8 -12z m159 -1 c11 -10 -29
-10 -53 0 l-30 14 40 -6 c22 -3 41 -6 43 -8z m102 5 c0 -13 -28 -25 -38 -16
-3 4 0 11 8 16 20 13 30 12 30 0z m-60 -10 c-11 -7 -11 -10 -2 -10 9 0 10 -5
3 -19 -6 -10 -7 -22 -3 -26 4 -5 -2 -4 -13 0 -11 5 -35 9 -52 9 -18 1 -33 4
-33 8 0 4 -6 5 -13 2 -7 -2 -22 6 -33 18 -16 20 -17 21 -1 8 24 -18 109 -14
120 6 4 8 16 14 25 14 15 0 15 -2 2 -10z m-293 -13 c6 -4 19 -4 28 0 12 4 16
2 13 -7 -6 -18 -37 -21 -62 -7 -12 6 -25 10 -29 9 -5 -1 -6 2 -2 8 6 10 32 9
52 -3z m502 -1 c43 -3 51 -16 10 -16 -19 1 -47 7 -64 15 -29 14 -29 14 -3 9
15 -3 41 -7 57 -8z m81 -26 c-27 -27 -34 -25 -14 5 9 14 20 22 25 20 4 -3 -1
-15 -11 -25z m603 18 c2 -7 2 -21 -1 -31 -4 -14 -7 -15 -19 -6 -8 7 -37 12
-64 11 -35 -1 -49 3 -46 11 7 22 123 35 130 15z m-823 -8 c0 -5 -4 -10 -10
-10 -5 0 -10 5 -10 10 0 6 5 10 10 10 6 0 10 -4 10 -10z m30 -10 c0 -5 -2 -10
-4 -10 -3 0 -8 5 -11 10 -3 6 -1 10 4 10 6 0 11 -4 11 -10z m40 6 c0 -2 -7 -6
-15 -10 -8 -3 -15 -1 -15 4 0 6 7 10 15 10 8 0 15 -2 15 -4z m214 -11 c4 -12
-1 -15 -24 -13 -16 1 -26 6 -24 10 3 5 9 6 14 3 5 -3 11 -1 15 5 8 14 12 13
19 -5z m132 6 c-7 -11 22 -23 35 -15 13 8 11 -10 -3 -24 -15 -15 -32 -16 -23
-2 3 6 -5 14 -19 20 -31 11 -34 30 -5 30 11 0 18 -4 15 -9z m838 -24 c6 4 7 2
3 -3 -12 -13 -96 -11 -101 3 -3 7 -16 9 -40 3 -19 -4 -46 -5 -61 -2 -17 3 -30
0 -36 -9 -6 -10 -11 -11 -16 -3 -5 6 -23 11 -42 12 -68 2 -41 12 35 13 43 1
89 2 102 2 12 1 22 4 22 8 0 4 28 -1 62 -11 34 -11 66 -16 72 -13z m-1682 -4
c23 -21 23 -29 -2 -36 -14 -4 -18 -11 -14 -24 5 -16 5 -16 -7 1 -10 16 -9 21
5 31 22 16 20 24 -6 35 -13 5 -17 9 -9 9 8 1 23 -6 33 -16z m88 7 c0 -5 -5
-10 -11 -10 -5 0 -7 5 -4 10 3 6 8 10 11 10 2 0 4 -4 4 -10z m77 -17 c-3 -3
-11 -2 -17 2 -9 6 -9 10 1 16 14 8 27 -7 16 -18z m388 9 c-3 -3 -11 0 -18 7
-9 10 -8 11 6 5 10 -3 15 -9 12 -12z m240 8 c3 -5 2 -10 -4 -10 -5 0 -13 5
-16 10 -3 6 -2 10 4 10 5 0 13 -4 16 -10z m529 -5 c-4 -8 -11 -12 -16 -9 -6 4
-5 10 3 15 19 12 19 11 13 -6z m-1365 -4 c11 -1 11 -4 1 -16 -7 -8 -16 -12
-21 -9 -5 3 -9 0 -9 -5 0 -6 -4 -11 -10 -11 -5 0 -10 9 -10 19 0 11 -6 22 -12
24 -7 3 0 3 17 2 17 -2 36 -4 44 -4z m85 -6 c3 -8 1 -15 -4 -15 -6 0 -10 7
-10 15 0 8 2 15 4 15 2 0 6 -7 10 -15z m206 11 c0 -3 -4 -8 -10 -11 -5 -3 -10
-1 -10 4 0 6 5 11 10 11 6 0 10 -2 10 -4z m357 -2 c-3 -3 -12 -4 -19 -1 -8 3
-5 6 6 6 11 1 17 -2 13 -5z m365 -19 c14 0 24 -4 21 -8 -3 -5 -22 -6 -42 -3
-20 3 -41 7 -48 8 -7 1 -10 5 -7 10 3 5 15 5 27 1 12 -4 34 -7 49 -8z m-832
-11 c0 -2 -11 -4 -25 -4 -14 0 -25 4 -25 9 0 4 11 6 25 3 14 -2 25 -6 25 -8z
m1604 0 c5 -14 4 -15 -9 -4 -17 14 -19 20 -6 20 5 0 12 -7 15 -16z m181 7
c-18 -7 -55 -4 -55 5 0 2 17 4 38 3 28 0 32 -2 17 -8z m-101 -16 c-2 -5 -16
-11 -29 -11 -19 -2 -23 1 -16 10 12 14 50 16 45 1z m-794 -5 c0 -5 -2 -10 -4
-10 -3 0 -8 5 -11 10 -3 6 -1 10 4 10 6 0 11 -4 11 -10z m200 -22 c0 -5 -12
-8 -26 -8 -14 0 -23 4 -20 8 2 4 -11 6 -30 4 -19 -2 -34 0 -34 6 0 5 18 10 41
10 23 1 44 3 47 7 6 5 22 -14 22 -27z m40 28 c0 -3 -4 -8 -10 -11 -5 -3 -10
-1 -10 4 0 6 5 11 10 11 6 0 10 -2 10 -4z m580 -6 c0 -5 -5 -10 -11 -10 -5 0
-7 5 -4 10 3 6 8 10 11 10 2 0 4 -4 4 -10z m-1800 -10 c6 9 10 10 10 3 0 -6
-4 -14 -9 -17 -14 -9 -42 5 -35 16 4 6 10 5 15 -3 8 -12 11 -11 19 1z m130 6
c0 -3 -4 -8 -10 -11 -5 -3 -10 -1 -10 4 0 6 5 11 10 11 6 0 10 -2 10 -4z
m1750 -6 c13 -8 13 -10 -2 -10 -9 0 -20 5 -23 10 -8 13 5 13 25 0z m-1515 -10
c3 -5 0 -10 -9 -10 -8 0 -23 -3 -33 -7 -16 -6 -16 -5 -4 10 15 19 37 22 46 7z
m885 0 c0 -5 -4 -10 -10 -10 -5 0 -10 5 -10 10 0 6 5 10 10 10 6 0 10 -4 10
-10z m726 -3 c16 6 17 5 4 -9 -8 -8 -21 -13 -29 -10 -10 4 -12 1 -6 -8 5 -9 4
-11 -4 -6 -6 4 -9 12 -6 17 4 5 -1 9 -10 9 -9 0 -13 5 -10 10 4 7 12 7 25 0
10 -5 27 -7 36 -3z m-1897 -11 c10 -11 7 -14 -12 -12 -15 0 -23 6 -20 14 7 16
18 15 32 -2z m321 4 c0 -5 -2 -10 -4 -10 -3 0 -8 5 -11 10 -3 6 -1 10 4 10 6
0 11 -4 11 -10z m-480 -10 c0 -5 -2 -10 -4 -10 -3 0 -8 5 -11 10 -3 6 -1 10 4
10 6 0 11 -4 11 -10z m2120 -11 c0 -4 -9 -7 -20 -6 -11 1 -20 7 -20 13 0 7 8
10 20 7 11 -3 20 -9 20 -14z m-1210 -15 c0 -8 -9 -14 -20 -14 -13 0 -20 7 -20
19 0 14 5 18 20 14 11 -3 20 -12 20 -19z m1288 7 c18 -6 57 -11 87 -13 29 -1
51 -6 49 -10 -2 -4 -20 -4 -39 -1 -23 4 -35 2 -35 -6 0 -9 -6 -9 -22 1 -13 7
-27 13 -33 13 -5 1 -17 4 -25 7 -8 4 -22 9 -30 11 -29 10 13 8 48 -2z m-1213
-11 c3 -5 2 -10 -4 -10 -5 0 -13 5 -16 10 -3 6 -2 10 4 10 5 0 13 -4 16 -10z
m-35 -15 c10 -12 10 -15 -2 -15 -8 0 -15 7 -15 15 0 8 1 15 2 15 2 0 8 -7 15
-15z m970 -17 c0 -5 -7 -3 -15 6 -8 8 -15 18 -15 22 0 3 7 1 15 -6 8 -7 15
-17 15 -22z m-1140 12 c0 -5 -5 -10 -11 -10 -5 0 -7 5 -4 10 3 6 8 10 11 10 2
0 4 -4 4 -10z m1640 0 c0 -5 -2 -10 -4 -10 -3 0 -8 5 -11 10 -3 6 -1 10 4 10
6 0 11 -4 11 -10z m-2486 -26 c3 -8 2 -12 -4 -9 -6 3 -10 10 -10 16 0 14 7 11
14 -7z m570 10 c18 -7 12 -24 -10 -24 -8 0 -14 7 -14 15 0 17 2 18 24 9z m656
-4 c0 -5 -2 -10 -4 -10 -3 0 -8 5 -11 10 -3 6 -1 10 4 10 6 0 11 -4 11 -10z
m584 4 c9 -3 16 -11 16 -16 0 -7 -4 -7 -12 0 -7 5 -22 12 -33 15 -15 3 -16 5
-3 6 9 0 23 -2 32 -5z m661 -4 c3 -5 -1 -10 -9 -10 -9 0 -16 5 -16 10 0 6 4
10 9 10 6 0 13 -4 16 -10z m-500 -10 c3 -5 2 -10 -4 -10 -5 0 -13 5 -16 10 -3
6 -2 10 4 10 5 0 13 -4 16 -10z m-1350 -11 c11 -17 -1 -21 -15 -4 -8 9 -8 15
-2 15 6 0 14 -5 17 -11z m1409 -2 c3 3 6 -1 6 -11 0 -15 -2 -15 -25 0 -29 19
-34 29 -6 15 10 -6 21 -7 25 -4z m151 -15 c-3 -3 -11 0 -18 7 -9 10 -8 11 6 5
10 -3 15 -9 12 -12z m185 6 c0 -5 -15 -8 -34 -8 -19 0 -37 3 -40 8 -2 4 13 7
35 7 21 0 39 -3 39 -7z m-2345 -19 c11 -17 -1 -21 -15 -4 -8 9 -8 15 -2 15 6
0 14 -5 17 -11z m2172 -3 c11 3 24 1 27 -5 4 -6 -7 -9 -30 -8 -23 1 -39 8 -42
17 -4 12 -2 13 9 3 8 -7 24 -10 36 -7z m-2023 -12 c3 -8 2 -12 -4 -9 -6 3 -10
10 -10 16 0 14 7 11 14 -7z m221 6 c3 -6 -1 -7 -9 -4 -18 7 -21 14 -7 14 6 0
13 -4 16 -10z m352 4 c-3 -3 -12 -4 -19 -1 -8 3 -5 6 6 6 11 1 17 -2 13 -5z
m53 -4 c0 -5 -2 -10 -4 -10 -3 0 -8 5 -11 10 -3 6 -1 10 4 10 6 0 11 -4 11
-10z m-470 -4 c0 -11 -19 -15 -25 -6 -3 5 1 10 9 10 9 0 16 -2 16 -4z m357 -2
c-3 -3 -12 -4 -19 -1 -8 3 -5 6 6 6 11 1 17 -2 13 -5z m671 -14 c3 -12 2 -12
-8 -3 -7 6 -18 9 -25 7 -7 -3 -15 -1 -18 3 -3 5 6 9 20 8 15 0 28 -7 31 -15z
m959 -3 c4 -7 0 -8 -11 -4 -10 4 -24 7 -32 7 -9 0 -13 4 -10 9 7 11 44 3 53
-12z m93 4 c0 -4 -9 -7 -20 -7 -20 0 -25 7 -14 19 7 7 34 -2 34 -12z m120 -6
l23 -25 -24 0 c-19 0 -21 2 -9 10 8 5 10 10 4 10 -7 0 -14 7 -18 15 -8 21 -3
19 24 -10z m-2425 5 c3 -6 -4 -10 -17 -10 -18 0 -20 2 -8 10 19 12 18 12 25 0z
m856 1 c-8 -5 -20 -7 -28 -4 -21 8 -15 13 15 13 20 0 23 -3 13 -9z m449 5 c0
-11 -19 -15 -25 -6 -3 5 1 10 9 10 9 0 16 -2 16 -4z m30 -6 c0 -5 -5 -10 -11
-10 -5 0 -7 5 -4 10 3 6 8 10 11 10 2 0 4 -4 4 -10z m-210 -16 c0 -8 -5 -12
-10 -9 -6 4 -8 11 -5 16 9 14 15 11 15 -7z m1270 12 c0 -3 -4 -8 -10 -11 -5
-3 -10 -1 -10 4 0 6 5 11 10 11 6 0 10 -2 10 -4z m-1720 -18 c0 -7 -4 -19 -9
-27 -7 -10 -9 -7 -8 12 2 26 17 39 17 15z m-330 -13 c0 -19 -6 -19 -14 0 -3 8
-1 15 4 15 6 0 10 -7 10 -15z m1844 0 c4 -11 -2 -15 -22 -14 -17 1 -20 3 -9 6
9 2 17 9 17 14 0 14 7 11 14 -6z m151 5 c3 -5 1 -10 -4 -10 -6 0 -11 5 -11 10
0 6 2 10 4 10 3 0 8 -4 11 -10z m-2431 -15 c-8 -19 -14 -19 -14 0 0 8 4 15 10
15 5 0 7 -7 4 -15z m556 5 c0 -5 -4 -10 -10 -10 -5 0 -10 5 -10 10 0 6 5 10
10 10 6 0 10 -4 10 -10z m-35 -21 c0 -16 -36 -20 -47 -4 -13 17 -9 21 20 19
16 0 27 -6 27 -15z m1265 17 c0 -2 -9 -6 -20 -9 -11 -3 -20 -1 -20 4 0 5 9 9
20 9 11 0 20 -2 20 -4z m-1420 -16 c0 -5 -7 -10 -16 -10 -8 0 -12 5 -9 10 3 6
10 10 16 10 5 0 9 -4 9 -10z m360 -5 c7 -9 8 -15 2 -15 -5 0 -12 7 -16 15 -7
19 -2 19 14 0z m135 5 c3 -5 2 -10 -4 -10 -5 0 -13 5 -16 10 -3 6 -2 10 4 10
5 0 13 -4 16 -10z m725 -16 c0 -2 -9 -4 -20 -4 -11 0 -20 4 -20 9 0 5 9 7 20
4 11 -3 20 -7 20 -9z m545 6 c3 -5 1 -10 -4 -10 -6 0 -11 5 -11 10 0 6 2 10 4
10 3 0 8 -4 11 -10z m-498 -6 c-3 -3 -12 -4 -19 -1 -8 3 -5 6 6 6 11 1 17 -2
13 -5z"/>
<path d="M1576 1722 c-7 -27 -80 -368 -141 -662 -14 -69 -29 -134 -32 -144 -5
-17 -1 -19 45 -13 85 10 146 43 215 116 109 116 163 265 155 426 -9 155 -75
245 -210 285 -21 7 -28 5 -32 -8z"/>
<path d="M1195 1712 c-211 -73 -316 -253 -303 -517 6 -111 33 -179 92 -233 41
-38 111 -70 123 -58 6 5 50 209 129 586 14 69 32 151 39 183 13 56 13 57 -8
57 -12 -1 -45 -8 -72 -18z"/>
</g>
</svg>
